<svg width="1280" height="640" viewBox="0 0 1280 640" fill="none" xmlns="http://www.w3.org/2000/svg">
<mask id="path-2-outside-1_117_1011" maskUnits="userSpaceOnUse" x="251.834" y="113.333" width="78" height="78" fill="black">
<rect fill="white" x="251.834" y="113.333" width="78" height="78"/>
<path fill-rule="evenodd" clip-rule="evenodd" d="M291.001 183.667C308.214 183.667 322.167 169.713 322.167 152.5C322.167 135.287 308.214 121.333 291.001 121.333C273.788 121.333 259.834 135.287 259.834 152.5C259.834 169.713 273.788 183.667 291.001 183.667ZM291.001 170.833C301.126 170.833 309.334 162.625 309.334 152.5C309.334 142.375 301.126 134.167 291.001 134.167C280.875 134.167 272.667 142.375 272.667 152.5C272.667 162.625 280.875 170.833 291.001 170.833Z"/>
</mask>
<path fill-rule="evenodd" clip-rule="evenodd" d="M291.001 183.667C308.214 183.667 322.167 169.713 322.167 152.5C322.167 135.287 308.214 121.333 291.001 121.333C273.788 121.333 259.834 135.287 259.834 152.5C259.834 169.713 273.788 183.667 291.001 183.667ZM291.001 170.833C301.126 170.833 309.334 162.625 309.334 152.5C309.334 142.375 301.126 134.167 291.001 134.167C280.875 134.167 272.667 142.375 272.667 152.5C272.667 162.625 280.875 170.833 291.001 170.833Z" fill="#FF915C"/>
<path d="M314.834 152.5C314.834 165.663 304.163 176.333 291.001 176.333V191C312.264 191 329.501 173.763 329.501 152.5H314.834ZM291.001 128.667C304.163 128.667 314.834 139.337 314.834 152.5H329.501C329.501 131.237 312.264 114 291.001 114V128.667ZM267.167 152.5C267.167 139.337 277.838 128.667 291.001 128.667V114C269.738 114 252.501 131.237 252.501 152.5H267.167ZM291.001 176.333C277.838 176.333 267.167 165.663 267.167 152.5H252.501C252.501 173.763 269.738 191 291.001 191V176.333ZM302.001 152.5C302.001 158.575 297.076 163.5 291.001 163.5V178.167C305.176 178.167 316.667 166.675 316.667 152.5H302.001ZM291.001 141.5C297.076 141.5 302.001 146.425 302.001 152.5H316.667C316.667 138.325 305.176 126.833 291.001 126.833V141.5ZM280.001 152.5C280.001 146.425 284.926 141.5 291.001 141.5V126.833C276.825 126.833 265.334 138.325 265.334 152.5H280.001ZM291.001 163.5C284.926 163.5 280.001 158.575 280.001 152.5H265.334C265.334 166.675 276.825 178.167 291.001 178.167V163.5Z" fill="#2B3C5A" mask="url(#path-2-outside-1_117_1011)"/>
<g clip-path="url(#clip0_117_1011)">
<rect x="107.667" y="139.667" width="366.667" height="366.667" rx="73.3333" fill="#91EDE9"/>
<rect x="107.667" y="139.667" width="366.667" height="366.667" fill="#91EDE9"/>
<path opacity="0.8" d="M489 506.333H93V426.583C93 426.583 128.156 397.612 145.25 396.333C166.964 394.708 172.341 402.921 193.833 406.416C216.43 410.091 230.949 386.437 253.417 390.833C276.32 395.314 305.982 412.575 324.917 411.917C364.962 410.524 362.599 404.816 395.5 411.917C409.483 414.934 424.407 387.32 447.75 391.75C459.573 393.993 489 396.333 489 396.333V506.333Z" fill="white"/>
<path opacity="0.6" d="M492.667 508.167H96.667V428.417C96.667 428.417 131.823 399.446 148.917 398.167C170.631 396.542 176.008 404.755 197.5 408.25C220.097 411.925 234.616 388.271 257.084 392.667C279.987 397.148 309.649 414.408 328.584 413.75C368.629 412.358 366.266 406.65 399.167 413.75C413.15 416.768 428.074 389.154 451.417 393.583C463.24 395.827 492.667 398.167 492.667 398.167V508.167Z" fill="#91EDE9"/>
<path d="M490.833 511.833H94.833V432.083C94.833 432.083 129.989 403.112 147.083 401.833C168.797 400.208 174.174 408.421 195.666 411.916C218.263 415.591 232.782 391.937 255.25 396.333C278.153 400.814 307.815 418.075 326.75 417.416C366.795 416.024 364.432 408.483 397.333 415.583C411.316 418.601 426.24 389.153 449.583 393.583C461.406 395.827 490.833 398.166 490.833 398.166V511.833Z" fill="#48ACBA"/>
<g filter="url(#filter0_d_117_1011)">
<mask id="path-9-outside-2_117_1011" maskUnits="userSpaceOnUse" x="154.666" y="113.333" width="273" height="327" fill="black">
<rect fill="white" x="154.666" y="113.333" width="273" height="327"/>
<path fill-rule="evenodd" clip-rule="evenodd" d="M303.864 180.897C314.659 175.999 322.167 165.126 322.167 152.5C322.167 135.287 308.213 121.333 291 121.333C273.787 121.333 259.833 135.287 259.833 152.5C259.833 165.126 267.341 175.998 278.135 180.896L277.345 203.833H277.25L233.752 207.116C230.884 207.333 228.666 209.724 228.666 212.601V224.407C228.666 227.281 230.879 229.67 233.745 229.891L276.333 233.167L274.309 309.743C273.698 332.866 269.931 361.2 247.34 366.163C244.839 366.712 242.268 367 239.666 367C226.125 367 210.5 350.33 200.486 333.236C204.411 331.532 208.473 330.034 212.654 328.757C215.033 328.03 215.511 324.682 213.436 323.311C198.435 313.397 186.537 300.09 179.236 284.697C178.233 282.581 175.203 282.427 174.192 284.54C171.627 289.9 169.47 295.416 167.741 301.052C162.679 317.556 161.387 334.769 163.94 351.708C163.995 352.074 164.052 352.439 164.111 352.803C164.465 355.008 167.197 355.789 168.802 354.236C171.802 351.335 175.009 348.599 178.402 346.048C196.816 404.016 258.4 433 291 433C323.608 433 385.214 404.002 403.611 346.004C407.001 348.562 410.205 351.304 413.201 354.214C414.807 355.772 417.546 354.992 417.899 352.783C417.956 352.425 418.011 352.066 418.065 351.708C420.606 334.768 419.321 317.555 414.281 301.052C412.564 295.426 410.421 289.92 407.874 284.57C406.865 282.451 403.828 282.604 402.825 284.726C395.556 300.108 383.714 313.407 368.788 323.315C366.719 324.688 367.197 328.028 369.571 328.757C373.685 330.019 377.683 331.497 381.548 333.177C371.536 350.291 355.89 367 342.333 367C339.732 367 337.162 366.713 334.662 366.164C312.069 361.202 308.302 332.866 307.69 309.743L305.666 233.167L348.255 229.891C351.12 229.67 353.333 227.281 353.333 224.407V212.601C353.333 209.724 351.116 207.333 348.247 207.116L304.75 203.833H304.655L303.864 180.897ZM309.333 152.5C309.333 162.625 301.125 170.833 291 170.833C280.875 170.833 272.667 162.625 272.667 152.5C272.667 142.375 280.875 134.167 291 134.167C301.125 134.167 309.333 142.375 309.333 152.5Z"/>
</mask>
<path fill-rule="evenodd" clip-rule="evenodd" d="M303.864 180.897C314.659 175.999 322.167 165.126 322.167 152.5C322.167 135.287 308.213 121.333 291 121.333C273.787 121.333 259.833 135.287 259.833 152.5C259.833 165.126 267.341 175.998 278.135 180.896L277.345 203.833H277.25L233.752 207.116C230.884 207.333 228.666 209.724 228.666 212.601V224.407C228.666 227.281 230.879 229.67 233.745 229.891L276.333 233.167L274.309 309.743C273.698 332.866 269.931 361.2 247.34 366.163C244.839 366.712 242.268 367 239.666 367C226.125 367 210.5 350.33 200.486 333.236C204.411 331.532 208.473 330.034 212.654 328.757C215.033 328.03 215.511 324.682 213.436 323.311C198.435 313.397 186.537 300.09 179.236 284.697C178.233 282.581 175.203 282.427 174.192 284.54C171.627 289.9 169.47 295.416 167.741 301.052C162.679 317.556 161.387 334.769 163.94 351.708C163.995 352.074 164.052 352.439 164.111 352.803C164.465 355.008 167.197 355.789 168.802 354.236C171.802 351.335 175.009 348.599 178.402 346.048C196.816 404.016 258.4 433 291 433C323.608 433 385.214 404.002 403.611 346.004C407.001 348.562 410.205 351.304 413.201 354.214C414.807 355.772 417.546 354.992 417.899 352.783C417.956 352.425 418.011 352.066 418.065 351.708C420.606 334.768 419.321 317.555 414.281 301.052C412.564 295.426 410.421 289.92 407.874 284.57C406.865 282.451 403.828 282.604 402.825 284.726C395.556 300.108 383.714 313.407 368.788 323.315C366.719 324.688 367.197 328.028 369.571 328.757C373.685 330.019 377.683 331.497 381.548 333.177C371.536 350.291 355.89 367 342.333 367C339.732 367 337.162 366.713 334.662 366.164C312.069 361.202 308.302 332.866 307.69 309.743L305.666 233.167L348.255 229.891C351.12 229.67 353.333 227.281 353.333 224.407V212.601C353.333 209.724 351.116 207.333 348.247 207.116L304.75 203.833H304.655L303.864 180.897ZM309.333 152.5C309.333 162.625 301.125 170.833 291 170.833C280.875 170.833 272.667 162.625 272.667 152.5C272.667 142.375 280.875 134.167 291 134.167C301.125 134.167 309.333 142.375 309.333 152.5Z" fill="#FF915C"/>
<path d="M303.864 180.897L300.834 174.219L296.366 176.246L296.535 181.149L303.864 180.897ZM278.135 180.896L285.464 181.149L285.634 176.246L281.166 174.218L278.135 180.896ZM277.345 203.833V211.167H284.429L284.673 204.086L277.345 203.833ZM277.25 203.833V196.5H276.973L276.698 196.521L277.25 203.833ZM233.752 207.116L234.304 214.429L234.304 214.429L233.752 207.116ZM233.745 229.891L234.307 222.579L234.307 222.579L233.745 229.891ZM276.333 233.167L283.664 233.361L283.848 226.39L276.895 225.855L276.333 233.167ZM274.309 309.743L266.978 309.55L266.978 309.55L274.309 309.743ZM247.34 366.163L245.766 359.001L245.766 359.001L247.34 366.163ZM200.486 333.236L197.566 326.509L189.977 329.804L194.159 336.943L200.486 333.236ZM212.654 328.757L210.512 321.743L210.512 321.743L212.654 328.757ZM213.436 323.311L217.479 317.193L217.479 317.193L213.436 323.311ZM179.236 284.697L172.611 287.839L172.611 287.839L179.236 284.697ZM174.192 284.54L167.577 281.374L167.577 281.374L174.192 284.54ZM167.741 301.052L160.73 298.902L160.73 298.902L167.741 301.052ZM163.94 351.708L156.689 352.801L156.689 352.801L163.94 351.708ZM164.111 352.803L156.87 353.966L156.87 353.966L164.111 352.803ZM168.802 354.236L173.9 359.508L173.9 359.508L168.802 354.236ZM178.402 346.048L185.391 343.827L182.26 333.971L173.994 340.187L178.402 346.048ZM403.611 346.004L408.027 340.15L399.754 333.909L396.621 343.787L403.611 346.004ZM413.201 354.214L418.31 348.953L418.31 348.953L413.201 354.214ZM417.899 352.783L410.657 351.626L410.657 351.626L417.899 352.783ZM418.065 351.708L410.813 350.62L410.813 350.62L418.065 351.708ZM414.281 301.052L407.268 303.193L407.268 303.193L414.281 301.052ZM407.874 284.57L414.495 281.417L414.495 281.417L407.874 284.57ZM402.825 284.726L409.456 287.859L409.456 287.859L402.825 284.726ZM368.788 323.315L372.843 329.425L372.843 329.425L368.788 323.315ZM369.571 328.757L367.42 335.767L367.42 335.767L369.571 328.757ZM381.548 333.177L387.878 336.88L392.051 329.745L384.471 326.451L381.548 333.177ZM334.662 366.164L336.235 359.001L336.235 359.001L334.662 366.164ZM307.69 309.743L315.021 309.549L315.021 309.549L307.69 309.743ZM305.666 233.167L305.104 225.855L298.151 226.39L298.336 233.361L305.666 233.167ZM348.255 229.891L347.692 222.579L347.692 222.579L348.255 229.891ZM348.247 207.116L347.695 214.429L347.695 214.429L348.247 207.116ZM304.75 203.833L305.302 196.521L305.026 196.5H304.75V203.833ZM304.655 203.833L297.326 204.086L297.57 211.167H304.655V203.833ZM306.894 187.575C320.213 181.532 329.5 168.108 329.5 152.5H314.833C314.833 162.144 309.105 170.466 300.834 174.219L306.894 187.575ZM329.5 152.5C329.5 131.237 312.263 114 291 114V128.667C304.163 128.667 314.833 139.337 314.833 152.5H329.5ZM291 114C269.737 114 252.5 131.237 252.5 152.5H267.167C267.167 139.337 277.837 128.667 291 128.667V114ZM252.5 152.5C252.5 168.108 261.787 181.531 275.105 187.574L281.166 174.218C272.895 170.465 267.167 162.144 267.167 152.5H252.5ZM270.806 180.644L270.016 203.581L284.673 204.086L285.464 181.149L270.806 180.644ZM277.345 196.5H277.25V211.167H277.345V196.5ZM276.698 196.521L233.201 199.804L234.304 214.429L277.802 211.146L276.698 196.521ZM233.201 199.804C226.507 200.309 221.333 205.888 221.333 212.601H236C236 213.56 235.261 214.357 234.304 214.429L233.201 199.804ZM221.333 212.601V224.407H236V212.601H221.333ZM221.333 224.407C221.333 231.113 226.496 236.688 233.182 237.202L234.307 222.579C235.262 222.652 236 223.449 236 224.407H221.333ZM233.182 237.202L275.771 240.478L276.895 225.855L234.307 222.579L233.182 237.202ZM269.002 232.973L266.978 309.55L281.64 309.937L283.664 233.361L269.002 232.973ZM266.978 309.55C266.677 320.968 265.591 332.838 262.173 342.263C258.818 351.515 253.706 357.256 245.766 359.001L248.913 373.326C263.565 370.107 271.632 359.2 275.961 347.263C280.227 335.5 281.331 321.641 281.64 309.937L266.978 309.55ZM245.766 359.001C243.77 359.439 241.727 359.667 239.666 359.667V374.333C242.809 374.333 245.907 373.986 248.913 373.326L245.766 359.001ZM239.666 359.667C235.701 359.667 230.152 357.052 223.719 351.132C217.523 345.43 211.545 337.606 206.814 329.529L194.159 336.943C199.441 345.96 206.282 355.018 213.787 361.924C221.056 368.613 230.09 374.333 239.666 374.333V359.667ZM203.407 339.963C207.076 338.369 210.878 336.967 214.796 335.77L210.512 321.743C206.067 323.101 201.745 324.695 197.566 326.509L203.407 339.963ZM214.796 335.77C223.14 333.222 224.7 321.965 217.479 317.193L209.392 329.429C207.714 328.319 207.274 326.502 207.456 325.235C207.638 323.967 208.575 322.335 210.512 321.743L214.796 335.77ZM217.479 317.193C203.498 307.952 192.541 295.637 185.862 281.554L172.611 287.839C180.532 304.542 193.373 318.841 209.392 329.429L217.479 317.193ZM185.862 281.554C182.574 274.622 171.61 272.948 167.577 281.374L180.807 287.706C179.907 289.586 178.004 290.421 176.435 290.361C174.938 290.303 173.372 289.444 172.611 287.839L185.862 281.554ZM167.577 281.374C164.857 287.058 162.567 292.912 160.73 298.902L174.752 303.202C176.372 297.919 178.396 292.742 180.807 287.706L167.577 281.374ZM160.73 298.902C155.348 316.446 153.971 334.767 156.689 352.801L171.192 350.616C168.804 334.77 170.009 318.665 174.752 303.202L160.73 298.902ZM156.689 352.801C156.747 353.19 156.808 353.578 156.87 353.966L171.351 351.641C171.296 351.299 171.243 350.958 171.192 350.616L156.689 352.801ZM156.87 353.966C158.27 362.681 168.519 364.712 173.9 359.508L163.704 348.965C164.935 347.774 166.649 347.474 168.082 347.901C169.574 348.346 171.037 349.686 171.351 351.641L156.87 353.966ZM173.9 359.508C176.679 356.82 179.655 354.281 182.81 351.909L173.994 340.187C170.363 342.917 166.925 345.849 163.704 348.965L173.9 359.508ZM171.413 348.268C181.24 379.206 202.512 402.187 225.318 417.367C247.985 432.454 272.922 440.333 291 440.333V425.667C276.477 425.667 254.322 419.054 233.444 405.157C212.705 391.353 193.977 370.858 185.391 343.827L171.413 348.268ZM291 440.333C309.081 440.333 334.027 432.45 356.699 417.355C379.509 402.168 400.782 379.176 410.601 348.222L396.621 343.787C388.043 370.83 369.314 391.336 348.57 405.147C327.688 419.051 305.526 425.667 291 425.667V440.333ZM399.195 351.859C402.346 354.236 405.318 356.781 408.093 359.475L418.31 348.953C415.092 345.828 411.656 342.888 408.027 340.15L399.195 351.859ZM408.093 359.475C413.471 364.697 423.746 362.671 425.14 353.939L410.657 351.626C410.97 349.667 412.436 348.326 413.929 347.882C415.363 347.455 417.079 347.757 418.31 348.953L408.093 359.475ZM425.14 353.939C425.201 353.558 425.26 353.177 425.317 352.796L410.813 350.62C410.762 350.956 410.711 351.291 410.657 351.626L425.14 353.939ZM425.317 352.796C428.022 334.767 426.651 316.451 421.295 298.91L407.268 303.193C411.99 318.659 413.191 334.769 410.813 350.62L425.317 352.796ZM421.295 298.91C419.47 292.933 417.196 287.09 414.495 281.417L401.253 287.722C403.647 292.75 405.657 297.918 407.268 303.193L421.295 298.91ZM414.495 281.417C410.471 272.965 399.478 274.644 396.195 281.592L409.456 287.859C408.695 289.468 407.126 290.328 405.627 290.386C404.056 290.446 402.151 289.608 401.253 287.722L414.495 281.417ZM396.195 281.592C389.543 295.669 378.639 307.974 364.732 317.205L372.843 329.425C388.789 318.84 401.569 304.548 409.456 287.859L396.195 281.592ZM364.732 317.205C357.532 321.984 359.096 333.214 367.42 335.767L371.722 321.746C373.654 322.338 374.59 323.966 374.772 325.235C374.954 326.501 374.516 328.314 372.843 329.425L364.732 317.205ZM367.42 335.767C371.273 336.949 375.013 338.333 378.625 339.902L384.471 326.451C380.353 324.662 376.098 323.088 371.722 321.746L367.42 335.767ZM375.218 329.474C370.487 337.56 364.505 345.399 358.302 351.113C351.86 357.045 346.304 359.667 342.333 359.667V374.333C351.92 374.333 360.964 368.6 368.238 361.9C375.75 354.981 382.596 345.908 387.878 336.88L375.218 329.474ZM342.333 359.667C340.273 359.667 338.23 359.439 336.235 359.001L333.089 373.326C336.094 373.986 339.192 374.333 342.333 374.333V359.667ZM336.235 359.001C328.295 357.257 323.183 351.516 319.827 342.263C316.409 332.838 315.323 320.968 315.021 309.549L300.36 309.936C300.669 321.641 301.773 335.5 306.039 347.264C310.368 359.201 318.437 370.108 333.089 373.326L336.235 359.001ZM315.021 309.549L312.997 232.973L298.336 233.361L300.36 309.936L315.021 309.549ZM306.229 240.478L348.817 237.202L347.692 222.579L305.104 225.855L306.229 240.478ZM348.817 237.202C355.503 236.688 360.666 231.113 360.666 224.407H346C346 223.449 346.737 222.652 347.692 222.579L348.817 237.202ZM360.666 224.407V212.601H346V224.407H360.666ZM360.666 212.601C360.666 205.888 355.493 200.309 348.799 199.804L347.695 214.429C346.739 214.357 346 213.56 346 212.601H360.666ZM348.799 199.804L305.302 196.521L304.198 211.146L347.695 214.429L348.799 199.804ZM304.75 196.5H304.655V211.167H304.75V196.5ZM311.984 203.581L311.193 180.644L296.535 181.149L297.326 204.086L311.984 203.581ZM291 178.167C305.175 178.167 316.667 166.675 316.667 152.5H302C302 158.575 297.075 163.5 291 163.5V178.167ZM265.333 152.5C265.333 166.675 276.825 178.167 291 178.167V163.5C284.925 163.5 280 158.575 280 152.5H265.333ZM291 126.833C276.825 126.833 265.333 138.325 265.333 152.5H280C280 146.425 284.925 141.5 291 141.5V126.833ZM316.667 152.5C316.667 138.325 305.175 126.833 291 126.833V141.5C297.075 141.5 302 146.425 302 152.5H316.667Z" fill="#2B3C5A" mask="url(#path-9-outside-2_117_1011)"/>
</g>
<path d="M228.666 226.105C228.666 228.021 230.141 229.613 232.051 229.76L276.332 233.167L288.495 221.004C289.419 220.08 288.765 218.5 287.458 218.5H228.666V226.105Z" fill="#8A380F"/>
<path fill-rule="evenodd" clip-rule="evenodd" d="M404.894 284.158C405.609 283.086 407.21 283.183 407.766 284.345C410.361 289.766 412.539 295.347 414.281 301.052C419.32 317.556 420.606 334.769 418.065 351.708C418.011 352.067 417.955 352.425 417.898 352.782C417.545 354.992 414.806 355.772 413.201 354.214C407.199 348.386 400.366 343.229 392.868 338.886C391.612 338.159 391.1 336.599 391.689 335.273C397.865 321.369 402.414 304.707 404.621 284.91C404.651 284.642 404.745 284.383 404.894 284.158V284.158Z" fill="#8A380F"/>
<path d="M303.832 180L304.749 203.833L294.083 213.788C292.911 214.882 290.999 214.051 290.999 212.448V180H303.832Z" fill="#8A380F"/>
<path d="M408.332 323C400.999 396.333 327.666 433 290.999 433V221.25C290.999 219.731 292.23 218.5 293.749 218.5L353.332 218.5V224.523C353.332 227.348 351.191 229.714 348.38 229.995L305.666 233.167L307.69 309.743C308.301 332.866 312.033 361.264 334.636 366.182C337.102 366.719 339.639 367 342.209 367C339.671 367.122 337.148 368.016 335.514 369.963C326.59 380.592 316.456 391.312 301.462 396.152C340.878 397.986 395.164 371.17 404.666 284.5L408.332 323Z" fill="#8A380F"/>
<path fill-rule="evenodd" clip-rule="evenodd" d="M294.661 176.145C292.647 176.354 290.999 177.975 290.999 180V180C290.999 182.025 292.646 183.689 294.657 183.451C297.494 183.116 300.276 182.392 302.926 181.294C306.707 179.728 310.143 177.432 313.037 174.538C315.931 171.644 318.227 168.208 319.793 164.427C321.341 160.691 322.146 156.69 322.165 152.648C322.166 152.566 322.1 152.5 322.018 152.5V152.5C321.945 152.5 321.883 152.554 321.872 152.626C319.943 164.966 308.734 174.692 294.661 176.145Z" fill="#8A380F"/>
<path opacity="0.4" d="M474.333 506.334H93.0001V433C92.7666 429.093 129.744 413.234 146.167 411.917C165.685 410.352 174.105 427.321 193.833 429.95C214.903 432.758 225.449 419.438 247.917 423.834C270.82 428.315 288.566 441.909 307.5 441.25C347.545 439.858 349.766 420.4 382.667 427.5C396.65 430.518 401.917 428.718 434.917 421.084C467.917 413.45 481.667 429.334 481.667 429.334L474.333 506.334Z" fill="#2B3C5A"/>
<path opacity="0.6" d="M478 508.167H96.667V434.834C96.667 434.834 132.739 415.03 149.834 413.751C171.548 412.126 168.674 416.672 190.167 420.167C212.764 423.842 210.782 414.855 233.25 419.251C256.154 423.732 292.232 443.742 311.167 443.084C351.212 441.692 353.433 422.234 386.334 429.334C400.317 432.352 403.75 439.417 436.75 431.784C469.75 424.15 478 431.167 478 431.167V508.167Z" fill="#2B3C5A"/>
<path d="M478.001 511.834H89.334V438.5C89.334 438.5 125.406 418.696 142.501 417.417C164.215 415.792 168.675 431.955 190.167 435.45C212.764 439.125 220.866 416.688 243.334 421.084C266.237 425.565 284.899 447.409 303.834 446.75C343.879 445.358 346.1 425.9 379.001 433C392.984 436.018 396.417 443.084 429.417 435.45C462.417 427.816 478.001 438.5 478.001 438.5V511.834Z" fill="#2B3C5A"/>
<g filter="url(#filter1_i_117_1011)">
<circle cx="138.833" cy="202" r="5.5" fill="white" fill-opacity="0.5"/>
</g>
<g filter="url(#filter2_i_117_1011)">
<circle cx="242.416" cy="268.917" r="4.58333" fill="white" fill-opacity="0.5"/>
</g>
<g filter="url(#filter3_i_117_1011)">
<circle cx="132.416" cy="235.917" r="2.75" fill="white" fill-opacity="0.5"/>
</g>
<g filter="url(#filter4_i_117_1011)">
<circle cx="131.499" cy="268" r="1.83333" fill="white" fill-opacity="0.5"/>
</g>
<g opacity="0.5" filter="url(#filter5_i_117_1011)">
<circle cx="192.916" cy="472.417" r="15.5833" fill="white" fill-opacity="0.5"/>
</g>
<g opacity="0.6" filter="url(#filter6_i_117_1011)">
<circle cx="159.916" cy="444.917" r="2.75" fill="#91EDE9"/>
</g>
<g filter="url(#filter7_i_117_1011)">
<circle cx="400.999" cy="427.5" r="22" fill="white" fill-opacity="0.5"/>
</g>
<g opacity="0.5" filter="url(#filter8_i_117_1011)">
<circle cx="360.666" cy="482.5" r="12.8333" fill="white" fill-opacity="0.5"/>
</g>
<g opacity="0.5" filter="url(#filter9_i_117_1011)">
<circle cx="461.5" cy="374.333" r="3.66667" fill="white" fill-opacity="0.5"/>
</g>
<g filter="url(#filter10_i_117_1011)">
<circle cx="444.999" cy="455" r="5.5" fill="white" fill-opacity="0.5"/>
</g>
<g opacity="0.6" filter="url(#filter11_i_117_1011)">
<circle cx="333.166" cy="466" r="5.5" fill="white" fill-opacity="0.5"/>
</g>
<g opacity="0.8" filter="url(#filter12_i_117_1011)">
<circle cx="172.749" cy="217.583" r="8.25" fill="white" fill-opacity="0.5"/>
</g>
<g filter="url(#filter13_i_117_1011)">
<circle cx="359.749" cy="278.083" r="8.25" fill="white" fill-opacity="0.5"/>
</g>
<g filter="url(#filter14_i_117_1011)">
<circle cx="346" cy="290" r="3.66667" fill="white" fill-opacity="0.5"/>
</g>
<g filter="url(#filter15_i_117_1011)">
<circle cx="373.5" cy="271.667" r="3.66667" fill="white" fill-opacity="0.5"/>
</g>
<g filter="url(#filter16_i_117_1011)">
<circle cx="453.249" cy="232.25" r="2.75" fill="white" fill-opacity="0.5"/>
</g>
<g opacity="0.6" filter="url(#filter17_i_117_1011)">
<circle cx="441.333" cy="262.5" r="5.5" fill="white" fill-opacity="0.5"/>
</g>
<g filter="url(#filter18_i_117_1011)">
<circle cx="423" cy="183.667" r="3.66667" fill="white" fill-opacity="0.5"/>
</g>
</g>
<path d="M586.936 374.176V408H580.664V374.176H568.4V368.912H599.2V374.176H586.936ZM605.282 366.56H611.386V384.032H611.666C611.965 383.285 612.338 382.576 612.786 381.904C613.271 381.195 613.85 380.597 614.522 380.112C615.194 379.589 615.978 379.179 616.874 378.88C617.77 378.581 618.815 378.432 620.01 378.432C622.922 378.432 625.274 379.384 627.066 381.288C628.858 383.192 629.754 385.899 629.754 389.408V408H623.65V390.304C623.65 385.712 621.653 383.416 617.658 383.416C616.874 383.416 616.109 383.528 615.362 383.752C614.615 383.939 613.943 384.237 613.346 384.648C612.749 385.059 612.263 385.581 611.89 386.216C611.554 386.851 611.386 387.579 611.386 388.4V408H605.282V366.56ZM651.572 408.672C649.37 408.672 647.391 408.317 645.636 407.608C643.882 406.899 642.407 405.891 641.212 404.584C640.018 403.277 639.103 401.709 638.468 399.88C637.834 398.013 637.516 395.923 637.516 393.608C637.516 391.293 637.834 389.203 638.468 387.336C639.14 385.469 640.055 383.883 641.212 382.576C642.407 381.232 643.844 380.205 645.524 379.496C647.204 378.787 649.071 378.432 651.124 378.432C653.14 378.432 654.97 378.787 656.612 379.496C658.255 380.168 659.655 381.139 660.812 382.408C661.97 383.677 662.847 385.189 663.444 386.944C664.079 388.699 664.396 390.64 664.396 392.768V395.064H643.676V396.016C643.676 398.293 644.386 400.16 645.804 401.616C647.223 403.035 649.183 403.744 651.684 403.744C653.551 403.744 655.138 403.352 656.444 402.568C657.788 401.747 658.871 400.664 659.692 399.32L663.5 402.68C662.53 404.36 661.036 405.779 659.02 406.936C657.042 408.093 654.559 408.672 651.572 408.672ZM651.124 383.08C650.042 383.08 649.034 383.267 648.1 383.64C647.204 384.013 646.42 384.555 645.748 385.264C645.114 385.936 644.61 386.739 644.236 387.672C643.863 388.605 643.676 389.632 643.676 390.752V391.144H658.18V390.584C658.18 388.307 657.527 386.496 656.22 385.152C654.951 383.771 653.252 383.08 651.124 383.08ZM728.921 368.912V397.528C728.921 399.208 728.622 400.739 728.025 402.12C727.465 403.501 726.643 404.677 725.561 405.648C724.515 406.619 723.246 407.365 721.753 407.888C720.259 408.411 718.598 408.672 716.769 408.672C713.334 408.672 710.59 407.813 708.537 406.096C706.521 404.379 705.214 402.008 704.617 398.984L710.553 397.752C710.889 399.357 711.523 400.701 712.457 401.784C713.39 402.867 714.846 403.408 716.825 403.408C718.654 403.408 720.073 402.867 721.081 401.784C722.126 400.664 722.649 398.965 722.649 396.688V374.176H709.041V368.912H728.921ZM762.443 408C760.688 408 759.363 407.552 758.467 406.656C757.608 405.76 757.085 404.584 756.899 403.128H756.619C756.059 404.883 755.032 406.245 753.539 407.216C752.083 408.187 750.216 408.672 747.939 408.672C744.989 408.672 742.637 407.907 740.883 406.376C739.128 404.808 738.251 402.661 738.251 399.936C738.251 397.136 739.277 395.008 741.331 393.552C743.421 392.059 746.613 391.312 750.907 391.312H756.451V389.072C756.451 385.152 754.379 383.192 750.235 383.192C748.368 383.192 746.856 383.565 745.699 384.312C744.541 385.021 743.571 385.973 742.787 387.168L739.147 384.2C739.968 382.632 741.349 381.288 743.291 380.168C745.232 379.011 747.733 378.432 750.795 378.432C754.453 378.432 757.328 379.309 759.419 381.064C761.509 382.819 762.555 385.357 762.555 388.68V403.184H766.195V408H762.443ZM749.675 404.192C751.653 404.192 753.277 403.744 754.547 402.848C755.816 401.952 756.451 400.795 756.451 399.376V395.176H751.019C746.613 395.176 744.411 396.501 744.411 399.152V400.272C744.411 401.579 744.877 402.568 745.811 403.24C746.744 403.875 748.032 404.192 749.675 404.192ZM781.517 408L771.157 379.104H777.485L781.461 391.312L785.213 402.904H785.549L789.301 391.312L793.277 379.104H799.381L789.021 408H781.517ZM829.599 408C827.844 408 826.519 407.552 825.623 406.656C824.764 405.76 824.242 404.584 824.055 403.128H823.775C823.215 404.883 822.188 406.245 820.695 407.216C819.239 408.187 817.372 408.672 815.095 408.672C812.146 408.672 809.794 407.907 808.039 406.376C806.284 404.808 805.407 402.661 805.407 399.936C805.407 397.136 806.434 395.008 808.487 393.552C810.578 392.059 813.77 391.312 818.063 391.312H823.607V389.072C823.607 385.152 821.535 383.192 817.391 383.192C815.524 383.192 814.012 383.565 812.855 384.312C811.698 385.021 810.727 385.973 809.943 387.168L806.303 384.2C807.124 382.632 808.506 381.288 810.447 380.168C812.388 379.011 814.89 378.432 817.951 378.432C821.61 378.432 824.484 379.309 826.575 381.064C828.666 382.819 829.711 385.357 829.711 388.68V403.184H833.351V408H829.599ZM816.831 404.192C818.81 404.192 820.434 403.744 821.703 402.848C822.972 401.952 823.607 400.795 823.607 399.376V395.176H818.175C813.77 395.176 811.567 396.501 811.567 399.152V400.272C811.567 401.579 812.034 402.568 812.967 403.24C813.9 403.875 815.188 404.192 816.831 404.192ZM852.089 408.672C848.692 408.672 845.836 408.075 843.521 406.88C841.206 405.685 839.302 404.099 837.809 402.12L841.841 398.256C843.334 400.048 844.921 401.373 846.601 402.232C848.281 403.053 850.185 403.464 852.313 403.464C854.777 403.464 856.662 402.904 857.969 401.784C859.313 400.664 859.985 399.059 859.985 396.968C859.985 395.288 859.5 394 858.529 393.104C857.558 392.171 855.897 391.499 853.545 391.088L849.289 390.416C847.422 390.117 845.854 389.632 844.585 388.96C843.316 388.251 842.289 387.429 841.505 386.496C840.721 385.525 840.142 384.461 839.769 383.304C839.433 382.109 839.265 380.859 839.265 379.552C839.265 375.856 840.46 373.056 842.849 371.152C845.238 369.211 848.524 368.24 852.705 368.24C855.804 368.24 858.436 368.744 860.601 369.752C862.804 370.723 864.577 372.104 865.921 373.896L862.001 377.816C860.918 376.509 859.63 375.464 858.137 374.68C856.681 373.859 854.87 373.448 852.705 373.448C850.39 373.448 848.617 373.952 847.385 374.96C846.19 375.931 845.593 377.368 845.593 379.272C845.593 380.877 846.06 382.147 846.993 383.08C847.964 383.976 849.662 384.629 852.089 385.04L856.233 385.768C859.742 386.403 862.3 387.691 863.905 389.632C865.51 391.536 866.313 393.869 866.313 396.632C866.313 398.424 865.996 400.067 865.361 401.56C864.764 403.053 863.849 404.323 862.617 405.368C861.422 406.413 859.929 407.235 858.137 407.832C856.382 408.392 854.366 408.672 852.089 408.672ZM887.067 408.672C884.902 408.672 882.96 408.317 881.243 407.608C879.563 406.899 878.126 405.891 876.931 404.584C875.774 403.277 874.878 401.691 874.243 399.824C873.646 397.957 873.347 395.867 873.347 393.552C873.347 391.237 873.646 389.147 874.243 387.28C874.878 385.413 875.774 383.827 876.931 382.52C878.126 381.213 879.563 380.205 881.243 379.496C882.96 378.787 884.883 378.432 887.011 378.432C889.998 378.432 892.387 379.067 894.179 380.336C896.008 381.605 897.371 383.248 898.267 385.264L893.507 387.84C892.984 386.496 892.182 385.432 891.099 384.648C890.054 383.864 888.691 383.472 887.011 383.472C884.696 383.472 882.904 384.181 881.635 385.6C880.366 386.981 879.731 388.829 879.731 391.144V395.96C879.731 398.237 880.366 400.085 881.635 401.504C882.904 402.923 884.734 403.632 887.123 403.632C888.915 403.632 890.371 403.221 891.491 402.4C892.648 401.579 893.563 400.459 894.235 399.04L898.715 401.784C897.782 403.8 896.363 405.461 894.459 406.768C892.555 408.037 890.091 408.672 887.067 408.672ZM907.037 403.072H914.709V384.032H907.037V379.104H920.813V385.264H921.149C921.448 384.48 921.84 383.715 922.325 382.968C922.811 382.221 923.408 381.568 924.117 381.008C924.864 380.411 925.723 379.944 926.693 379.608C927.701 379.272 928.821 379.104 930.053 379.104H934.141V384.928H928.093C925.853 384.928 924.08 385.357 922.773 386.216C921.467 387.075 920.813 388.251 920.813 389.744V403.072H931.285V408H907.037V403.072ZM954.951 373.84C953.383 373.84 952.282 373.523 951.647 372.888C951.05 372.253 950.751 371.469 950.751 370.536V369.36C950.751 368.427 951.05 367.643 951.647 367.008C952.282 366.373 953.365 366.056 954.895 366.056C956.463 366.056 957.546 366.373 958.143 367.008C958.778 367.643 959.095 368.427 959.095 369.36V370.536C959.095 371.469 958.778 372.253 958.143 372.888C957.546 373.523 956.482 373.84 954.951 373.84ZM942.015 403.072H951.871V384.032H942.015V379.104H957.975V403.072H967.215V408H942.015V403.072ZM974.362 379.104H980.466V384.032H980.802C981.66 382.277 982.799 380.915 984.218 379.944C985.636 378.936 987.41 378.432 989.538 378.432C992.935 378.432 995.642 379.701 997.658 382.24C999.674 384.779 1000.68 388.549 1000.68 393.552C1000.68 398.555 999.674 402.325 997.658 404.864C995.642 407.403 992.935 408.672 989.538 408.672C987.41 408.672 985.636 408.187 984.218 407.216C982.799 406.208 981.66 404.827 980.802 403.072H980.466V419.2H974.362V379.104ZM987.018 403.688C989.332 403.688 991.106 402.979 992.338 401.56C993.607 400.141 994.242 398.256 994.242 395.904V391.2C994.242 388.848 993.607 386.963 992.338 385.544C991.106 384.125 989.332 383.416 987.018 383.416C986.122 383.416 985.282 383.528 984.498 383.752C983.714 383.976 983.023 384.312 982.426 384.76C981.828 385.208 981.343 385.768 980.97 386.44C980.634 387.075 980.466 387.84 980.466 388.736V398.368C980.466 399.264 980.634 400.048 980.97 400.72C981.343 401.355 981.828 401.896 982.426 402.344C983.023 402.792 983.714 403.128 984.498 403.352C985.282 403.576 986.122 403.688 987.018 403.688ZM1022.05 408C1019.51 408 1017.65 407.328 1016.45 405.984C1015.26 404.603 1014.66 402.829 1014.66 400.664V384.032H1005.76V379.104H1012.08C1013.17 379.104 1013.93 378.899 1014.38 378.488C1014.83 378.04 1015.05 377.256 1015.05 376.136V368.912H1020.76V379.104H1033.08V384.032H1020.76V403.072H1033.08V408H1022.05ZM583.8 472.672C581.336 472.672 579.189 472.224 577.36 471.328C575.568 470.395 574.075 469.069 572.88 467.352C571.723 465.635 570.864 463.525 570.304 461.024C569.744 458.523 569.464 455.667 569.464 452.456C569.464 449.283 569.744 446.445 570.304 443.944C570.864 441.405 571.723 439.277 572.88 437.56C574.075 435.843 575.568 434.536 577.36 433.64C579.189 432.707 581.336 432.24 583.8 432.24C586.264 432.24 588.392 432.707 590.184 433.64C592.013 434.536 593.507 435.843 594.664 437.56C595.859 439.277 596.736 441.405 597.296 443.944C597.856 446.445 598.136 449.283 598.136 452.456C598.136 455.667 597.856 458.523 597.296 461.024C596.736 463.525 595.859 465.635 594.664 467.352C593.507 469.069 592.013 470.395 590.184 471.328C588.392 472.224 586.264 472.672 583.8 472.672ZM583.8 467.464C586.6 467.464 588.579 466.419 589.736 464.328C590.893 462.2 591.472 459.325 591.472 455.704V449.152C591.472 445.568 590.893 442.731 589.736 440.64C588.579 438.512 586.6 437.448 583.8 437.448C581 437.448 579.021 438.512 577.864 440.64C576.707 442.731 576.128 445.568 576.128 449.152V455.76C576.128 459.344 576.707 462.2 577.864 464.328C579.021 466.419 581 467.464 583.8 467.464ZM603.098 472L613.85 457.328L603.546 443.104H610.658L614.466 448.592L617.49 452.96H617.826L620.794 448.592L624.602 443.104H631.21L620.85 457.104L631.714 472H624.546L620.234 465.784L617.266 461.528H616.93L614.018 465.784L609.762 472H603.098ZM652.748 437.84C651.18 437.84 650.079 437.523 649.444 436.888C648.847 436.253 648.548 435.469 648.548 434.536V433.36C648.548 432.427 648.847 431.643 649.444 431.008C650.079 430.373 651.162 430.056 652.692 430.056C654.26 430.056 655.343 430.373 655.94 431.008C656.575 431.643 656.892 432.427 656.892 433.36V434.536C656.892 435.469 656.575 436.253 655.94 436.888C655.343 437.523 654.279 437.84 652.748 437.84ZM639.812 467.072H649.668V448.032H639.812V443.104H655.772V467.072H665.012V472H639.812V467.072ZM690.806 467.072H690.47C689.612 468.827 688.473 470.208 687.054 471.216C685.636 472.187 683.862 472.672 681.734 472.672C678.337 472.672 675.63 471.403 673.614 468.864C671.598 466.325 670.59 462.555 670.59 457.552C670.59 452.549 671.598 448.779 673.614 446.24C675.63 443.701 678.337 442.432 681.734 442.432C683.862 442.432 685.636 442.936 687.054 443.944C688.473 444.915 689.612 446.277 690.47 448.032H690.806V430.56H696.91V472H690.806V467.072ZM684.254 467.688C685.15 467.688 685.99 467.576 686.774 467.352C687.558 467.128 688.249 466.792 688.846 466.344C689.444 465.896 689.91 465.355 690.246 464.72C690.62 464.048 690.806 463.264 690.806 462.368V452.736C690.806 451.84 690.62 451.075 690.246 450.44C689.91 449.768 689.444 449.208 688.846 448.76C688.249 448.312 687.558 447.976 686.774 447.752C685.99 447.528 685.15 447.416 684.254 447.416C681.94 447.416 680.148 448.125 678.878 449.544C677.646 450.963 677.03 452.848 677.03 455.2V459.904C677.03 462.256 677.646 464.141 678.878 465.56C680.148 466.979 681.94 467.688 684.254 467.688ZM728.865 472C727.11 472 725.785 471.552 724.889 470.656C724.03 469.76 723.507 468.584 723.321 467.128H723.041C722.481 468.883 721.454 470.245 719.961 471.216C718.505 472.187 716.638 472.672 714.361 472.672C711.411 472.672 709.059 471.907 707.305 470.376C705.55 468.808 704.673 466.661 704.673 463.936C704.673 461.136 705.699 459.008 707.753 457.552C709.843 456.059 713.035 455.312 717.329 455.312H722.873V453.072C722.873 449.152 720.801 447.192 716.657 447.192C714.79 447.192 713.278 447.565 712.121 448.312C710.963 449.021 709.993 449.973 709.209 451.168L705.569 448.2C706.39 446.632 707.771 445.288 709.713 444.168C711.654 443.011 714.155 442.432 717.217 442.432C720.875 442.432 723.75 443.309 725.841 445.064C727.931 446.819 728.977 449.357 728.977 452.68V467.184H732.617V472H728.865ZM716.096 468.192C718.075 468.192 719.699 467.744 720.969 466.848C722.238 465.952 722.873 464.795 722.873 463.376V459.176H717.441C713.035 459.176 710.833 460.501 710.833 463.152V464.272C710.833 465.579 711.299 466.568 712.233 467.24C713.166 467.875 714.454 468.192 716.096 468.192ZM753.427 472C750.888 472 749.021 471.328 747.827 469.984C746.632 468.603 746.035 466.829 746.035 464.664V448.032H737.131V443.104H743.459C744.541 443.104 745.307 442.899 745.755 442.488C746.203 442.04 746.427 441.256 746.427 440.136V432.912H752.139V443.104H764.459V448.032H752.139V467.072H764.459V472H753.427ZM787.061 437.84C785.493 437.84 784.391 437.523 783.757 436.888C783.159 436.253 782.861 435.469 782.861 434.536V433.36C782.861 432.427 783.159 431.643 783.757 431.008C784.391 430.373 785.474 430.056 787.005 430.056C788.573 430.056 789.655 430.373 790.253 431.008C790.887 431.643 791.205 432.427 791.205 433.36V434.536C791.205 435.469 790.887 436.253 790.253 436.888C789.655 437.523 788.591 437.84 787.061 437.84ZM774.125 467.072H783.981V448.032H774.125V443.104H790.085V467.072H799.325V472H774.125V467.072ZM818.847 472.672C816.719 472.672 814.796 472.317 813.079 471.608C811.399 470.899 809.962 469.891 808.767 468.584C807.61 467.277 806.714 465.691 806.079 463.824C805.444 461.957 805.127 459.867 805.127 457.552C805.127 455.237 805.444 453.147 806.079 451.28C806.714 449.413 807.61 447.827 808.767 446.52C809.962 445.213 811.399 444.205 813.079 443.496C814.796 442.787 816.719 442.432 818.847 442.432C820.975 442.432 822.879 442.787 824.559 443.496C826.276 444.205 827.714 445.213 828.871 446.52C830.066 447.827 830.98 449.413 831.615 451.28C832.25 453.147 832.567 455.237 832.567 457.552C832.567 459.867 832.25 461.957 831.615 463.824C830.98 465.691 830.066 467.277 828.871 468.584C827.714 469.891 826.276 470.899 824.559 471.608C822.879 472.317 820.975 472.672 818.847 472.672ZM818.847 467.856C821.087 467.856 822.86 467.184 824.167 465.84C825.511 464.459 826.183 462.424 826.183 459.736V455.368C826.183 452.68 825.511 450.664 824.167 449.32C822.86 447.939 821.087 447.248 818.847 447.248C816.607 447.248 814.815 447.939 813.471 449.32C812.164 450.664 811.511 452.68 811.511 455.368V459.736C811.511 462.424 812.164 464.459 813.471 465.84C814.815 467.184 816.607 467.856 818.847 467.856ZM840.329 472V443.104H846.433V448.032H846.713C847.012 447.285 847.385 446.576 847.833 445.904C848.318 445.195 848.897 444.597 849.569 444.112C850.241 443.589 851.025 443.179 851.921 442.88C852.817 442.581 853.862 442.432 855.057 442.432C857.969 442.432 860.321 443.384 862.113 445.288C863.905 447.192 864.801 449.899 864.801 453.408V472H858.697V454.304C858.697 449.712 856.7 447.416 852.705 447.416C851.921 447.416 851.156 447.528 850.409 447.752C849.662 447.939 848.99 448.237 848.393 448.648C847.796 449.059 847.31 449.581 846.937 450.216C846.601 450.851 846.433 451.579 846.433 452.4V472H840.329ZM920.701 472.672C915.736 472.672 912.04 470.917 909.613 467.408C907.224 463.899 906.029 458.915 906.029 452.456C906.029 445.997 907.224 441.013 909.613 437.504C912.04 433.995 915.736 432.24 920.701 432.24C922.605 432.24 924.248 432.501 925.629 433.024C927.048 433.509 928.261 434.2 929.269 435.096C930.277 435.955 931.117 436.981 931.789 438.176C932.499 439.333 933.077 440.584 933.525 441.928L927.869 443.832C927.571 442.936 927.235 442.096 926.861 441.312C926.488 440.528 926.021 439.856 925.461 439.296C924.901 438.736 924.229 438.288 923.445 437.952C922.699 437.616 921.765 437.448 920.645 437.448C917.883 437.448 915.867 438.512 914.597 440.64C913.328 442.731 912.693 445.568 912.693 449.152V455.76C912.693 459.344 913.328 462.2 914.597 464.328C915.867 466.419 917.883 467.464 920.645 467.464C921.765 467.464 922.699 467.296 923.445 466.96C924.229 466.624 924.901 466.176 925.461 465.616C926.021 465.056 926.488 464.384 926.861 463.6C927.235 462.816 927.571 461.976 927.869 461.08L933.525 462.984C933.077 464.328 932.499 465.597 931.789 466.792C931.117 467.949 930.277 468.976 929.269 469.872C928.261 470.731 927.048 471.421 925.629 471.944C924.248 472.429 922.605 472.672 920.701 472.672ZM953.159 472.672C951.031 472.672 949.109 472.317 947.391 471.608C945.711 470.899 944.274 469.891 943.079 468.584C941.922 467.277 941.026 465.691 940.391 463.824C939.757 461.957 939.439 459.867 939.439 457.552C939.439 455.237 939.757 453.147 940.391 451.28C941.026 449.413 941.922 447.827 943.079 446.52C944.274 445.213 945.711 444.205 947.391 443.496C949.109 442.787 951.031 442.432 953.159 442.432C955.287 442.432 957.191 442.787 958.871 443.496C960.589 444.205 962.026 445.213 963.183 446.52C964.378 447.827 965.293 449.413 965.927 451.28C966.562 453.147 966.879 455.237 966.879 457.552C966.879 459.867 966.562 461.957 965.927 463.824C965.293 465.691 964.378 467.277 963.183 468.584C962.026 469.891 960.589 470.899 958.871 471.608C957.191 472.317 955.287 472.672 953.159 472.672ZM953.159 467.856C955.399 467.856 957.173 467.184 958.479 465.84C959.823 464.459 960.495 462.424 960.495 459.736V455.368C960.495 452.68 959.823 450.664 958.479 449.32C957.173 447.939 955.399 447.248 953.159 447.248C950.919 447.248 949.127 447.939 947.783 449.32C946.477 450.664 945.823 452.68 945.823 455.368V459.736C945.823 462.424 946.477 464.459 947.783 465.84C949.127 467.184 950.919 467.856 953.159 467.856ZM972.402 472V443.104H977.61V446.856H977.89C978.338 445.624 978.972 444.579 979.794 443.72C980.652 442.861 981.866 442.432 983.434 442.432C984.964 442.432 986.14 442.861 986.962 443.72C987.82 444.541 988.362 445.68 988.586 447.136H988.81C989.332 445.829 990.06 444.728 990.994 443.832C991.927 442.899 993.271 442.432 995.026 442.432C997.266 442.432 998.815 443.216 999.674 444.784C1000.57 446.352 1001.02 448.648 1001.02 451.672V472H995.81V452.456C995.81 450.44 995.567 449.059 995.082 448.312C994.596 447.528 993.812 447.136 992.73 447.136C991.759 447.136 990.938 447.472 990.266 448.144C989.631 448.779 989.314 449.749 989.314 451.056V472H984.106V452.456C984.106 450.44 983.863 449.059 983.378 448.312C982.93 447.528 982.164 447.136 981.082 447.136C980.074 447.136 979.234 447.472 978.562 448.144C977.927 448.779 977.61 449.749 977.61 451.056V472H972.402ZM1007.94 443.104H1014.04V448.032H1014.38C1015.24 446.277 1016.38 444.915 1017.8 443.944C1019.21 442.936 1020.99 442.432 1023.12 442.432C1026.51 442.432 1029.22 443.701 1031.24 446.24C1033.25 448.779 1034.26 452.549 1034.26 457.552C1034.26 462.555 1033.25 466.325 1031.24 468.864C1029.22 471.403 1026.51 472.672 1023.12 472.672C1020.99 472.672 1019.21 472.187 1017.8 471.216C1016.38 470.208 1015.24 468.827 1014.38 467.072H1014.04V483.2H1007.94V443.104ZM1020.6 467.688C1022.91 467.688 1024.68 466.979 1025.92 465.56C1027.18 464.141 1027.82 462.256 1027.82 459.904V455.2C1027.82 452.848 1027.18 450.963 1025.92 449.544C1024.68 448.125 1022.91 447.416 1020.6 447.416C1019.7 447.416 1018.86 447.528 1018.08 447.752C1017.29 447.976 1016.6 448.312 1016 448.76C1015.41 449.208 1014.92 449.768 1014.55 450.44C1014.21 451.075 1014.04 451.84 1014.04 452.736V462.368C1014.04 463.264 1014.21 464.048 1014.55 464.72C1014.92 465.355 1015.41 465.896 1016 466.344C1016.6 466.792 1017.29 467.128 1018.08 467.352C1018.86 467.576 1019.7 467.688 1020.6 467.688ZM1055.69 437.84C1054.12 437.84 1053.02 437.523 1052.38 436.888C1051.78 436.253 1051.49 435.469 1051.49 434.536V433.36C1051.49 432.427 1051.78 431.643 1052.38 431.008C1053.02 430.373 1054.1 430.056 1055.63 430.056C1057.2 430.056 1058.28 430.373 1058.88 431.008C1059.51 431.643 1059.83 432.427 1059.83 433.36V434.536C1059.83 435.469 1059.51 436.253 1058.88 436.888C1058.28 437.523 1057.22 437.84 1055.69 437.84ZM1042.75 467.072H1052.61V448.032H1042.75V443.104H1058.71V467.072H1067.95V472H1042.75V467.072ZM1074.87 467.072H1084.45V435.488H1074.87V430.56H1090.55V467.072H1100.13V472H1074.87V467.072ZM1121.67 472.672C1119.46 472.672 1117.48 472.317 1115.73 471.608C1113.98 470.899 1112.5 469.891 1111.31 468.584C1110.11 467.277 1109.2 465.709 1108.56 463.88C1107.93 462.013 1107.61 459.923 1107.61 457.608C1107.61 455.293 1107.93 453.203 1108.56 451.336C1109.23 449.469 1110.15 447.883 1111.31 446.576C1112.5 445.232 1113.94 444.205 1115.62 443.496C1117.3 442.787 1119.16 442.432 1121.22 442.432C1123.23 442.432 1125.06 442.787 1126.71 443.496C1128.35 444.168 1129.75 445.139 1130.91 446.408C1132.06 447.677 1132.94 449.189 1133.54 450.944C1134.17 452.699 1134.49 454.64 1134.49 456.768V459.064H1113.77V460.016C1113.77 462.293 1114.48 464.16 1115.9 465.616C1117.32 467.035 1119.28 467.744 1121.78 467.744C1123.64 467.744 1125.23 467.352 1126.54 466.568C1127.88 465.747 1128.96 464.664 1129.79 463.32L1133.59 466.68C1132.62 468.36 1131.13 469.779 1129.11 470.936C1127.14 472.093 1124.65 472.672 1121.67 472.672ZM1121.22 447.08C1120.14 447.08 1119.13 447.267 1118.19 447.64C1117.3 448.013 1116.51 448.555 1115.84 449.264C1115.21 449.936 1114.7 450.739 1114.33 451.672C1113.96 452.605 1113.77 453.632 1113.77 454.752V455.144H1128.27V454.584C1128.27 452.307 1127.62 450.496 1126.31 449.152C1125.04 447.771 1123.35 447.08 1121.22 447.08ZM1142.08 467.072H1149.76V448.032H1142.08V443.104H1155.86V449.264H1156.2C1156.49 448.48 1156.89 447.715 1157.37 446.968C1157.86 446.221 1158.45 445.568 1159.16 445.008C1159.91 444.411 1160.77 443.944 1161.74 443.608C1162.75 443.272 1163.87 443.104 1165.1 443.104H1169.19V448.928H1163.14C1160.9 448.928 1159.13 449.357 1157.82 450.216C1156.51 451.075 1155.86 452.251 1155.86 453.744V467.072H1166.33V472H1142.08V467.072Z" fill="#888888"/>
<path d="M686.214 167.586L685.628 167L684.8 167L603.2 167V167.2L602.376 167.2L601.791 167.781L572.591 196.781L572 197.368L572 198.2L572 220.6V220.8V280V280.2V280.828V281.028L572.586 281.614L601.586 310.614L602.172 311.2H603H684.8H685.624L686.209 310.619L715.409 281.619L716 281.033V280.832V280.2V280V198.4V198.2V197.572V197.372L715.414 196.786L686.214 167.586ZM618.425 208.003L669.568 208.197L675 213.628V264.772L669.572 270.2H618.228L612.8 264.772V220.824L612.98 213.449L618.425 208.003ZM832.747 274.186L831.328 275.604L832.751 277.018L866.351 310.418L866.936 311H867.761H893.961H895.961V309V283V282.172L895.375 281.586L861.775 247.986L860.361 246.572L858.947 247.986L832.747 274.186ZM867.761 167.2H866.933L866.347 167.786L823.958 210.175L781.372 167.783L780.787 167.2H779.961H753.961H751.961V169.2V195.2V196.028L752.547 196.614L794.936 239.003L752.544 281.589L751.961 282.174V283V309V311H753.961H779.961H780.788L781.374 310.415L895.374 196.615L895.961 196.029V195.2V169.2V167.2H893.961H867.761ZM1073.92 208H1075.92V206V169V167H1073.92H962.922H962.089L961.503 167.591L932.503 196.791L931.922 197.376V198.2V280V280.828L932.508 281.414L961.508 310.414L962.093 311H962.922H1073.92H1075.92V309V272.2V270.2H1073.92H981.15L972.722 261.772V216.428L981.15 208H1073.92Z" fill="black" stroke="white" stroke-width="4"/>
<defs>
<filter id="filter0_d_117_1011" x="151.666" y="108.5" width="275.001" height="331.833" filterUnits="userSpaceOnUse" color-interpolation-filters="sRGB">
<feFlood flood-opacity="0" result="BackgroundImageFix"/>
<feColorMatrix in="SourceAlpha" type="matrix" values="0 0 0 0 0 0 0 0 0 0 0 0 0 0 0 0 0 0 127 0" result="hardAlpha"/>
<feOffset dx="-3.66667" dy="-5.5"/>
<feComposite in2="hardAlpha" operator="out"/>
<feColorMatrix type="matrix" values="0 0 0 0 1 0 0 0 0 1 0 0 0 0 1 0 0 0 1 0"/>
<feBlend mode="normal" in2="BackgroundImageFix" result="effect1_dropShadow_117_1011"/>
<feBlend mode="normal" in="SourceGraphic" in2="effect1_dropShadow_117_1011" result="shape"/>
</filter>
<filter id="filter1_i_117_1011" x="133.333" y="196.5" width="11" height="11" filterUnits="userSpaceOnUse" color-interpolation-filters="sRGB">
<feFlood flood-opacity="0" result="BackgroundImageFix"/>
<feBlend mode="normal" in="SourceGraphic" in2="BackgroundImageFix" result="shape"/>
<feColorMatrix in="SourceAlpha" type="matrix" values="0 0 0 0 0 0 0 0 0 0 0 0 0 0 0 0 0 0 127 0" result="hardAlpha"/>
<feOffset dx="1.83333" dy="1.83333"/>
<feComposite in2="hardAlpha" operator="arithmetic" k2="-1" k3="1"/>
<feColorMatrix type="matrix" values="0 0 0 0 1 0 0 0 0 1 0 0 0 0 1 0 0 0 0.8 0"/>
<feBlend mode="normal" in2="shape" result="effect1_innerShadow_117_1011"/>
</filter>
<filter id="filter2_i_117_1011" x="237.833" y="264.333" width="9.16699" height="9.16675" filterUnits="userSpaceOnUse" color-interpolation-filters="sRGB">
<feFlood flood-opacity="0" result="BackgroundImageFix"/>
<feBlend mode="normal" in="SourceGraphic" in2="BackgroundImageFix" result="shape"/>
<feColorMatrix in="SourceAlpha" type="matrix" values="0 0 0 0 0 0 0 0 0 0 0 0 0 0 0 0 0 0 127 0" result="hardAlpha"/>
<feOffset dx="1.83333" dy="1.83333"/>
<feComposite in2="hardAlpha" operator="arithmetic" k2="-1" k3="1"/>
<feColorMatrix type="matrix" values="0 0 0 0 1 0 0 0 0 1 0 0 0 0 1 0 0 0 0.8 0"/>
<feBlend mode="normal" in2="shape" result="effect1_innerShadow_117_1011"/>
</filter>
<filter id="filter3_i_117_1011" x="129.666" y="233.167" width="5.5" height="5.5" filterUnits="userSpaceOnUse" color-interpolation-filters="sRGB">
<feFlood flood-opacity="0" result="BackgroundImageFix"/>
<feBlend mode="normal" in="SourceGraphic" in2="BackgroundImageFix" result="shape"/>
<feColorMatrix in="SourceAlpha" type="matrix" values="0 0 0 0 0 0 0 0 0 0 0 0 0 0 0 0 0 0 127 0" result="hardAlpha"/>
<feOffset dx="1.83333" dy="1.83333"/>
<feComposite in2="hardAlpha" operator="arithmetic" k2="-1" k3="1"/>
<feColorMatrix type="matrix" values="0 0 0 0 1 0 0 0 0 1 0 0 0 0 1 0 0 0 0.8 0"/>
<feBlend mode="normal" in2="shape" result="effect1_innerShadow_117_1011"/>
</filter>
<filter id="filter4_i_117_1011" x="129.666" y="266.167" width="3.66699" height="3.66675" filterUnits="userSpaceOnUse" color-interpolation-filters="sRGB">
<feFlood flood-opacity="0" result="BackgroundImageFix"/>
<feBlend mode="normal" in="SourceGraphic" in2="BackgroundImageFix" result="shape"/>
<feColorMatrix in="SourceAlpha" type="matrix" values="0 0 0 0 0 0 0 0 0 0 0 0 0 0 0 0 0 0 127 0" result="hardAlpha"/>
<feOffset dx="1.83333" dy="1.83333"/>
<feComposite in2="hardAlpha" operator="arithmetic" k2="-1" k3="1"/>
<feColorMatrix type="matrix" values="0 0 0 0 1 0 0 0 0 1 0 0 0 0 1 0 0 0 0.8 0"/>
<feBlend mode="normal" in2="shape" result="effect1_innerShadow_117_1011"/>
</filter>
<filter id="filter5_i_117_1011" x="177.333" y="456.833" width="31.167" height="31.1665" filterUnits="userSpaceOnUse" color-interpolation-filters="sRGB">
<feFlood flood-opacity="0" result="BackgroundImageFix"/>
<feBlend mode="normal" in="SourceGraphic" in2="BackgroundImageFix" result="shape"/>
<feColorMatrix in="SourceAlpha" type="matrix" values="0 0 0 0 0 0 0 0 0 0 0 0 0 0 0 0 0 0 127 0" result="hardAlpha"/>
<feOffset dx="1.83333" dy="1.83333"/>
<feComposite in2="hardAlpha" operator="arithmetic" k2="-1" k3="1"/>
<feColorMatrix type="matrix" values="0 0 0 0 1 0 0 0 0 1 0 0 0 0 1 0 0 0 0.8 0"/>
<feBlend mode="normal" in2="shape" result="effect1_innerShadow_117_1011"/>
</filter>
<filter id="filter6_i_117_1011" x="157.166" y="442.167" width="5.5" height="5.5" filterUnits="userSpaceOnUse" color-interpolation-filters="sRGB">
<feFlood flood-opacity="0" result="BackgroundImageFix"/>
<feBlend mode="normal" in="SourceGraphic" in2="BackgroundImageFix" result="shape"/>
<feColorMatrix in="SourceAlpha" type="matrix" values="0 0 0 0 0 0 0 0 0 0 0 0 0 0 0 0 0 0 127 0" result="hardAlpha"/>
<feOffset dx="1.83333" dy="1.83333"/>
<feComposite in2="hardAlpha" operator="arithmetic" k2="-1" k3="1"/>
<feColorMatrix type="matrix" values="0 0 0 0 1 0 0 0 0 1 0 0 0 0 1 0 0 0 0.8 0"/>
<feBlend mode="normal" in2="shape" result="effect1_innerShadow_117_1011"/>
</filter>
<filter id="filter7_i_117_1011" x="378.999" y="405.5" width="44" height="44" filterUnits="userSpaceOnUse" color-interpolation-filters="sRGB">
<feFlood flood-opacity="0" result="BackgroundImageFix"/>
<feBlend mode="normal" in="SourceGraphic" in2="BackgroundImageFix" result="shape"/>
<feColorMatrix in="SourceAlpha" type="matrix" values="0 0 0 0 0 0 0 0 0 0 0 0 0 0 0 0 0 0 127 0" result="hardAlpha"/>
<feOffset dx="1.83333" dy="1.83333"/>
<feComposite in2="hardAlpha" operator="arithmetic" k2="-1" k3="1"/>
<feColorMatrix type="matrix" values="0 0 0 0 1 0 0 0 0 1 0 0 0 0 1 0 0 0 0.8 0"/>
<feBlend mode="normal" in2="shape" result="effect1_innerShadow_117_1011"/>
</filter>
<filter id="filter8_i_117_1011" x="347.833" y="469.667" width="25.667" height="25.6665" filterUnits="userSpaceOnUse" color-interpolation-filters="sRGB">
<feFlood flood-opacity="0" result="BackgroundImageFix"/>
<feBlend mode="normal" in="SourceGraphic" in2="BackgroundImageFix" result="shape"/>
<feColorMatrix in="SourceAlpha" type="matrix" values="0 0 0 0 0 0 0 0 0 0 0 0 0 0 0 0 0 0 127 0" result="hardAlpha"/>
<feOffset dx="1.83333" dy="1.83333"/>
<feComposite in2="hardAlpha" operator="arithmetic" k2="-1" k3="1"/>
<feColorMatrix type="matrix" values="0 0 0 0 1 0 0 0 0 1 0 0 0 0 1 0 0 0 0.8 0"/>
<feBlend mode="normal" in2="shape" result="effect1_innerShadow_117_1011"/>
</filter>
<filter id="filter9_i_117_1011" x="457.833" y="370.667" width="7.33301" height="7.33325" filterUnits="userSpaceOnUse" color-interpolation-filters="sRGB">
<feFlood flood-opacity="0" result="BackgroundImageFix"/>
<feBlend mode="normal" in="SourceGraphic" in2="BackgroundImageFix" result="shape"/>
<feColorMatrix in="SourceAlpha" type="matrix" values="0 0 0 0 0 0 0 0 0 0 0 0 0 0 0 0 0 0 127 0" result="hardAlpha"/>
<feOffset dx="1.83333" dy="1.83333"/>
<feComposite in2="hardAlpha" operator="arithmetic" k2="-1" k3="1"/>
<feColorMatrix type="matrix" values="0 0 0 0 1 0 0 0 0 1 0 0 0 0 1 0 0 0 0.8 0"/>
<feBlend mode="normal" in2="shape" result="effect1_innerShadow_117_1011"/>
</filter>
<filter id="filter10_i_117_1011" x="439.499" y="449.5" width="11" height="11" filterUnits="userSpaceOnUse" color-interpolation-filters="sRGB">
<feFlood flood-opacity="0" result="BackgroundImageFix"/>
<feBlend mode="normal" in="SourceGraphic" in2="BackgroundImageFix" result="shape"/>
<feColorMatrix in="SourceAlpha" type="matrix" values="0 0 0 0 0 0 0 0 0 0 0 0 0 0 0 0 0 0 127 0" result="hardAlpha"/>
<feOffset dx="1.83333" dy="1.83333"/>
<feComposite in2="hardAlpha" operator="arithmetic" k2="-1" k3="1"/>
<feColorMatrix type="matrix" values="0 0 0 0 1 0 0 0 0 1 0 0 0 0 1 0 0 0 0.8 0"/>
<feBlend mode="normal" in2="shape" result="effect1_innerShadow_117_1011"/>
</filter>
<filter id="filter11_i_117_1011" x="327.666" y="460.5" width="11" height="11" filterUnits="userSpaceOnUse" color-interpolation-filters="sRGB">
<feFlood flood-opacity="0" result="BackgroundImageFix"/>
<feBlend mode="normal" in="SourceGraphic" in2="BackgroundImageFix" result="shape"/>
<feColorMatrix in="SourceAlpha" type="matrix" values="0 0 0 0 0 0 0 0 0 0 0 0 0 0 0 0 0 0 127 0" result="hardAlpha"/>
<feOffset dx="1.83333" dy="1.83333"/>
<feComposite in2="hardAlpha" operator="arithmetic" k2="-1" k3="1"/>
<feColorMatrix type="matrix" values="0 0 0 0 1 0 0 0 0 1 0 0 0 0 1 0 0 0 0.8 0"/>
<feBlend mode="normal" in2="shape" result="effect1_innerShadow_117_1011"/>
</filter>
<filter id="filter12_i_117_1011" x="164.499" y="209.333" width="16.5" height="16.5" filterUnits="userSpaceOnUse" color-interpolation-filters="sRGB">
<feFlood flood-opacity="0" result="BackgroundImageFix"/>
<feBlend mode="normal" in="SourceGraphic" in2="BackgroundImageFix" result="shape"/>
<feColorMatrix in="SourceAlpha" type="matrix" values="0 0 0 0 0 0 0 0 0 0 0 0 0 0 0 0 0 0 127 0" result="hardAlpha"/>
<feOffset dx="1.83333" dy="1.83333"/>
<feComposite in2="hardAlpha" operator="arithmetic" k2="-1" k3="1"/>
<feColorMatrix type="matrix" values="0 0 0 0 1 0 0 0 0 1 0 0 0 0 1 0 0 0 0.8 0"/>
<feBlend mode="normal" in2="shape" result="effect1_innerShadow_117_1011"/>
</filter>
<filter id="filter13_i_117_1011" x="351.499" y="269.833" width="16.5" height="16.5" filterUnits="userSpaceOnUse" color-interpolation-filters="sRGB">
<feFlood flood-opacity="0" result="BackgroundImageFix"/>
<feBlend mode="normal" in="SourceGraphic" in2="BackgroundImageFix" result="shape"/>
<feColorMatrix in="SourceAlpha" type="matrix" values="0 0 0 0 0 0 0 0 0 0 0 0 0 0 0 0 0 0 127 0" result="hardAlpha"/>
<feOffset dx="1.83333" dy="1.83333"/>
<feComposite in2="hardAlpha" operator="arithmetic" k2="-1" k3="1"/>
<feColorMatrix type="matrix" values="0 0 0 0 1 0 0 0 0 1 0 0 0 0 1 0 0 0 0.8 0"/>
<feBlend mode="normal" in2="shape" result="effect1_innerShadow_117_1011"/>
</filter>
<filter id="filter14_i_117_1011" x="342.333" y="286.333" width="7.33301" height="7.33325" filterUnits="userSpaceOnUse" color-interpolation-filters="sRGB">
<feFlood flood-opacity="0" result="BackgroundImageFix"/>
<feBlend mode="normal" in="SourceGraphic" in2="BackgroundImageFix" result="shape"/>
<feColorMatrix in="SourceAlpha" type="matrix" values="0 0 0 0 0 0 0 0 0 0 0 0 0 0 0 0 0 0 127 0" result="hardAlpha"/>
<feOffset dx="1.83333" dy="1.83333"/>
<feComposite in2="hardAlpha" operator="arithmetic" k2="-1" k3="1"/>
<feColorMatrix type="matrix" values="0 0 0 0 1 0 0 0 0 1 0 0 0 0 1 0 0 0 0.8 0"/>
<feBlend mode="normal" in2="shape" result="effect1_innerShadow_117_1011"/>
</filter>
<filter id="filter15_i_117_1011" x="369.833" y="268" width="7.33301" height="7.33325" filterUnits="userSpaceOnUse" color-interpolation-filters="sRGB">
<feFlood flood-opacity="0" result="BackgroundImageFix"/>
<feBlend mode="normal" in="SourceGraphic" in2="BackgroundImageFix" result="shape"/>
<feColorMatrix in="SourceAlpha" type="matrix" values="0 0 0 0 0 0 0 0 0 0 0 0 0 0 0 0 0 0 127 0" result="hardAlpha"/>
<feOffset dx="1.83333" dy="1.83333"/>
<feComposite in2="hardAlpha" operator="arithmetic" k2="-1" k3="1"/>
<feColorMatrix type="matrix" values="0 0 0 0 1 0 0 0 0 1 0 0 0 0 1 0 0 0 0.8 0"/>
<feBlend mode="normal" in2="shape" result="effect1_innerShadow_117_1011"/>
</filter>
<filter id="filter16_i_117_1011" x="450.499" y="229.5" width="5.5" height="5.5" filterUnits="userSpaceOnUse" color-interpolation-filters="sRGB">
<feFlood flood-opacity="0" result="BackgroundImageFix"/>
<feBlend mode="normal" in="SourceGraphic" in2="BackgroundImageFix" result="shape"/>
<feColorMatrix in="SourceAlpha" type="matrix" values="0 0 0 0 0 0 0 0 0 0 0 0 0 0 0 0 0 0 127 0" result="hardAlpha"/>
<feOffset dx="1.83333" dy="1.83333"/>
<feComposite in2="hardAlpha" operator="arithmetic" k2="-1" k3="1"/>
<feColorMatrix type="matrix" values="0 0 0 0 1 0 0 0 0 1 0 0 0 0 1 0 0 0 0.8 0"/>
<feBlend mode="normal" in2="shape" result="effect1_innerShadow_117_1011"/>
</filter>
<filter id="filter17_i_117_1011" x="435.833" y="257" width="11" height="11" filterUnits="userSpaceOnUse" color-interpolation-filters="sRGB">
<feFlood flood-opacity="0" result="BackgroundImageFix"/>
<feBlend mode="normal" in="SourceGraphic" in2="BackgroundImageFix" result="shape"/>
<feColorMatrix in="SourceAlpha" type="matrix" values="0 0 0 0 0 0 0 0 0 0 0 0 0 0 0 0 0 0 127 0" result="hardAlpha"/>
<feOffset dx="1.83333" dy="1.83333"/>
<feComposite in2="hardAlpha" operator="arithmetic" k2="-1" k3="1"/>
<feColorMatrix type="matrix" values="0 0 0 0 1 0 0 0 0 1 0 0 0 0 1 0 0 0 0.8 0"/>
<feBlend mode="normal" in2="shape" result="effect1_innerShadow_117_1011"/>
</filter>
<filter id="filter18_i_117_1011" x="419.333" y="180" width="7.33301" height="7.33325" filterUnits="userSpaceOnUse" color-interpolation-filters="sRGB">
<feFlood flood-opacity="0" result="BackgroundImageFix"/>
<feBlend mode="normal" in="SourceGraphic" in2="BackgroundImageFix" result="shape"/>
<feColorMatrix in="SourceAlpha" type="matrix" values="0 0 0 0 0 0 0 0 0 0 0 0 0 0 0 0 0 0 127 0" result="hardAlpha"/>
<feOffset dx="1.83333" dy="1.83333"/>
<feComposite in2="hardAlpha" operator="arithmetic" k2="-1" k3="1"/>
<feColorMatrix type="matrix" values="0 0 0 0 1 0 0 0 0 1 0 0 0 0 1 0 0 0 0.8 0"/>
<feBlend mode="normal" in2="shape" result="effect1_innerShadow_117_1011"/>
</filter>
<clipPath id="clip0_117_1011">
<rect x="107.667" y="139.667" width="366.667" height="366.667" rx="73.3333" fill="white"/>
</clipPath>
</defs>
</svg>
